#!OML:ASF F:\VICON\USERDATA\INSTALL\rory3\rory3.ASF
:FULLY-SPECIFIED
:DEGREES
3445
root 1.59858 18.0478 0.857154 1.1353 32.5589 -14.7095
lowerback 7.23397 1.35244 -0.354954
upperback -0.951609 1.47633 -7.2494
thorax -4.88652 0.66161 -7.63059
lowerneck -25.636 -14.4297 -14.0989
upperneck -2.46324 -15.9726 17.6885
head 5.83122 -6.52472 5.76582
rclavicle 6.36111e-014 2.8625e-014
rhumerus 44.3207 -24.9079 -29.0573
rradius 45.1274
rwrist 44.2877
rhand -67.0263 -11.8889
rfingers 7.12502
rthumb -38.8117 -37.4626
lclavicle 6.36111e-014 2.8625e-014
lhumerus 76.2583 -56.8156 38.4357
lradius 41.2221
lwrist -28.4284
lhand -28.1794 41.8985
lfingers 7.12502
lthumb -1.55919 -288.127
rfemur -7.71088 -6.3591 22.3658
rtibia 23.3001
rfoot -16.4893 -24.8721
rtoes -0.93109
lfemur -21.9673 -3.17817 -6.39146
ltibia 31.0003
lfoot -14.4389 -5.83022
ltoes -8.4347
3446
root 1.58152 18.0455 0.844494 1.30356 32.6658 -14.6307
lowerback 7.32172 1.31262 -0.242537
upperback -0.976203 1.42941 -7.19252
thorax -4.96679 0.63328 -7.63377
lowerneck -25.6829 -14.4308 -14.1574
upperneck -2.60654 -15.9142 17.5941
head 5.77503 -6.50143 5.75705
rclavicle 7.95139e-015 -5.40694e-014
rhumerus 45.9164 -26.6831 -32.0556
rradius 44.3524
rwrist 42.4218
rhand -66.0925 -14.6051
rfingers 7.12502
rthumb -37.9303 -40.4232
lclavicle 7.95139e-015 -5.40694e-014
lhumerus 76.2583 -56.8156 38.4357
lradius 41.2221
lwrist -28.4284
lhand -28.1794 41.8985
lfingers 7.12502
lthumb -1.55919 -288.127
rfemur -8.04015 -6.68734 22.4073
rtibia 23.479
rfoot -16.3778 -24.9814
rtoes -1.81136
lfemur -22.2204 -3.3239 -6.39897
ltibia 30.9809
lfoot -14.3406 -5.86179
ltoes -8.25563
3447
root 1.56245 18.0439 0.83205 1.7216 32.7265 -14.3055
lowerback 7.33127 1.27269 -0.338085
upperback -1.07566 1.35988 -7.21988
thorax -5.08784 0.597023 -7.60545
lowerneck -25.7985 -14.3983 -14.037
upperneck -2.59963 -15.8545 17.2985
head 5.73849 -6.48527 5.65304
rclavicle 4.05521e-014 3.49861e-014
rhumerus 47.5996 -28.1876 -34.998
rradius 43.5565
rwrist 40.5842
rhand -65.3706 -16.722
rfingers 7.12502
rthumb -37.2482 -42.7219
lclavicle 4.05521e-014 3.49861e-014
lhumerus 76.2583 -56.8156 38.4357
lradius 41.2221
lwrist -28.4284
lhand -28.1794 41.8985
lfingers 7.12502
lthumb -1.55919 -288.127
rfemur -8.44551 -6.93883 22.2208
rtibia 23.6016
rfoot -16.3779 -25.0229
rtoes -1.96053
lfemur -22.5447 -3.37072 -6.6402
ltibia 30.9384
lfoot -14.2393 -5.84152
ltoes -8.58437
3448
root 1.54704 18.0446 0.824634 2.26032 32.7611 -13.7861
lowerback 7.25156 1.25728 -0.57472
upperback -1.18677 1.31188 -7.3079
thorax -5.16966 0.576252 -7.56043
lowerneck -26.0748 -14.4289 -13.9263
upperneck -2.29631 -15.8978 17.015
head 5.83533 -6.50435 5.52477
rclavicle -3.10104e-014 1.59028e-014
rhumerus 48.9065 -29.2723 -37.1356
rradius 42.7447
rwrist 38.6977
rhand -65.0935 -18.3983
rfingers 7.12502
rthumb -36.9861 -44.4664
lclavicle -3.10104e-014 1.59028e-014
lhumerus 76.2583 -56.8156 38.4357
lradius 41.2221
lwrist -28.4284
lhand -28.1794 41.8985
lfingers 7.12502
lthumb -1.55919 -288.127
rfemur -8.78622 -7.17309 21.8234
rtibia 23.6444
rfoot -16.523 -24.9797
rtoes -1.652
lfemur -22.8421 -3.38435 -7.07403
ltibia 30.8899
lfoot -14.1412 -5.84183
ltoes -8.76492
3449
root 1.53151 18.0427 0.821356 2.36698 32.8097 -13.7745
lowerback 7.26958 1.2504 -0.434322
upperback -1.25272 1.31242 -7.24064
thorax -5.24764 0.570014 -7.57208
lowerneck -26.0878 -14.4179 -13.8494
upperneck -2.23078 -15.8921 16.8283
head 5.82866 -6.51283 5.4534
rclavicle 4.6118e-014 0
rhumerus 49.7498 -29.9756 -38.3506
rradius 42.0466
rwrist 37.2555
rhand -64.7955 -20.6132
rfingers 7.12502
rthumb -36.7041 -46.7536
lclavicle 4.6118e-014 0
lhumerus 76.2583 -56.8156 38.4357
lradius 41.2221
lwrist -28.4284
lhand -28.1794 41.8985
lfingers 7.12502
lthumb -1.55919 -288.127
rfemur -8.89712 -7.3065 21.882
rtibia 23.5838
rfoot -16.7389 -24.8862
rtoes -1.22665
lfemur -23.0043 -3.45016 -7.02096
ltibia 30.8616
lfoot -14.1113 -5.82473
ltoes -8.55646
3450
root 1.50813 18.0406 0.816954 2.15475 32.9106 -14.0842
lowerback 7.45304 1.25149 -0.0625112
upperback -1.26217 1.34284 -7.13295
thorax -5.35193 0.571596 -7.68262
lowerneck -25.8138 -14.3382 -13.5987
upperneck -2.51037 -15.8409 16.6299
head 5.65372 -6.52239 5.37636
rclavicle 4.92986e-014 -1.27222e-014
rhumerus 49.8551 -30.3955 -38.4007
rradius 41.5403
rwrist 36.0034
rhand -64.4403 -22.022
rfingers 7.12502
rthumb -36.3679 -48.2473
lclavicle 4.92986e-014 -1.27222e-014
lhumerus 76.2583 -56.8156 38.4357
lradius 41.2221
lwrist -28.4284
lhand -28.1794 41.8985
lfingers 7.12502
lthumb -1.55919 -288.127
rfemur -8.79674 -7.3493 22.2677
rtibia 23.4102
rfoot -17.0288 -24.9108
rtoes -1.12356
lfemur -23.0618 -3.5343 -6.64901
ltibia 30.8513
lfoot -14.0793 -5.827
ltoes -8.85328
3451
root 1.48246 18.042 0.812265 2.10362 33.0619 -14.2273
lowerback 7.56287 1.15945 0.164746
upperback -1.15956 1.24668 -7.01905
thorax -5.31579 0.52031 -7.67932
lowerneck -26.2496 -14.3642 -13.4602
upperneck -2.50255 -15.8346 16.4889
head 5.68574 -6.50378 5.30031
rclavicle -4.6118e-014 4.45278e-014
rhumerus 49.7246 -30.5004 -37.5185
rradius 41.0768
rwrist 35.3294
rhand -64.464 -21.7151
rfingers 7.12502
rthumb -36.3904 -47.9348
lclavicle -4.6118e-014 4.45278e-014
lhumerus 76.2583 -56.8156 38.4357
lradius 41.2221
lwrist -28.4284
lhand -28.1794 41.8985
lfingers 7.12502
lthumb -1.55919 -288.127
rfemur -8.73375 -7.33824 22.5224
rtibia 23.1935
rfoot -17.3538 -25.0523
rtoes -1.16227
lfemur -23.1887 -3.58279 -6.41775
ltibia 30.83
lfoot -14.0351 -5.94811
ltoes -8.93761
